<svg width="274" height="312" viewBox="0 0 274 312" fill="none" xmlns="http://www.w3.org/2000/svg">
<g clip-path="url(#clip0_6_5375)">
<path d="M227.535 61.2991V176.348C227.535 226.247 187.006 266.702 137.015 266.702C87.0243 266.702 46.4953 226.247 46.4953 176.348V175.957H0V177.04C0 251.603 60.5373 312.03 135.237 312.03H138.763C213.463 312.03 274 251.603 274 177.04V61.2991H227.535Z" fill="white"/>
<path d="M74.7601 0C107.575 0 107.575 50.0199 74.7601 50.0199C41.5836 50.0199 41.5836 0 74.7601 0ZM224.13 16.5429V40.846L189.206 34.1386C187.428 44.0042 181.1 50.6816 170.161 50.6816C137.708 50.6816 139.094 0.661718 171.216 0.661718C175.405 0.691796 174.35 0.360937 224.13 16.5429Z" fill="#FCE82B"/>
</g>
<defs>
<clipPath id="clip0_6_5375">
<rect width="274" height="312" fill="white"/>
</clipPath>
</defs>
</svg>
